<?xml version="1.0" encoding="UTF-8" standalone="no"?>
<!-- Created with Inkscape (http://www.inkscape.org/) -->

<svg
   xmlns:dc="http://purl.org/dc/elements/1.1/"
   xmlns:cc="http://creativecommons.org/ns#"
   xmlns:rdf="http://www.w3.org/1999/02/22-rdf-syntax-ns#"
   xmlns:svg="http://www.w3.org/2000/svg"
   xmlns="http://www.w3.org/2000/svg"
   xmlns:sodipodi="http://sodipodi.sourceforge.net/DTD/sodipodi-0.dtd"
   xmlns:inkscape="http://www.inkscape.org/namespaces/inkscape"
   id="svg3393"
   version="1.1"
   inkscape:version="0.91 r13725"
   xml:space="preserve"
   width="1052.3625"
   height="744.09998"
   viewBox="0 0 1052.3625 744.09998"
   sodipodi:docname="gradle_logo.svg"><metadata
     id="metadata3399"><rdf:RDF><cc:Work
         rdf:about=""><dc:format>image/svg+xml</dc:format><dc:type
           rdf:resource="http://purl.org/dc/dcmitype/StillImage" /><dc:title></dc:title></cc:Work></rdf:RDF></metadata><defs
     id="defs3397" /><sodipodi:namedview
     pagecolor="#ffffff"
     bordercolor="#666666"
     borderopacity="1"
     objecttolerance="10"
     gridtolerance="10"
     guidetolerance="10"
     inkscape:pageopacity="0"
     inkscape:pageshadow="2"
     inkscape:window-width="1680"
     inkscape:window-height="957"
     id="namedview3395"
     showgrid="false"
     inkscape:zoom="1.0065852"
     inkscape:cx="526.18127"
     inkscape:cy="372.04999"
     inkscape:window-x="0"
     inkscape:window-y="27"
     inkscape:window-maximized="1"
     inkscape:current-layer="g3401" /><g
     id="g3401"
     inkscape:groupmode="layer"
     inkscape:label="ink_ext_XXXXXX"
     transform="matrix(1.25,0,0,-1.25,0,744.1)"><g
       id="g3403"
       transform="scale(0.1,0.1)"><path
         d="m 1763.29,3012.82 c 0,191.76 -155.46,347.22 -347.22,347.22 -191.75,0 -347.21,-155.46 -347.21,-347.22 0,-191.75 155.46,-347.2 347.21,-347.2 191.76,0 347.22,155.45 347.22,347.2"
         style="fill:#294d23;fill-opacity:1;fill-rule:nonzero;stroke:none"
         id="path3405"
         inkscape:connector-curvature="0" /><path
         d="m 1416.07,2049.88 c 484.7,0 886.33,355.39 958.71,819.82 l -311.7,0 -282.19,-488.75 -729.63,0 -364.834,631.87 283.64,491.28 -158.671,274.86 c -222.79,-177.82 -365.711,-451.5 -365.711,-758.69 0,-535.92 434.472,-970.39 970.386,-970.39"
         style="fill:#66c430;fill-opacity:1;fill-rule:nonzero;stroke:none"
         id="path3407"
         inkscape:connector-curvature="0" /><path
         d="m 4251.7,3468.79 c -0.3,0 -0.58,0.09 -0.88,0.09 -237.64,0 -430.27,-192.64 -430.27,-430.27 0,-237.63 0.56,-426.74 0.56,-426.74 l 223.65,0 c 0,70.09 -0.46,312.68 -0.46,426.74 0,114.07 92.46,206.54 206.52,206.54 0.3,0 0.58,-0.11 0.88,-0.11 l 0,223.75"
         style="fill:#294d23;fill-opacity:1;fill-rule:nonzero;stroke:none"
         id="path3409"
         inkscape:connector-curvature="0" /><path
         d="m 6763.47,2611.96 c -0.3,0 -0.58,-0.09 -0.87,-0.09 -237.65,0 -430.29,192.63 -430.29,430.26 0,237.63 0.56,832.05 0.56,832.05 l 223.66,0 c 0,-70.1 -0.47,-717.99 -0.47,-832.05 0,-114.06 92.48,-206.53 206.54,-206.53 0.29,0 0.57,0.09 0.87,0.09 l 0,-223.73"
         style="fill:#294d23;fill-opacity:1;fill-rule:nonzero;stroke:none"
         id="path3411"
         inkscape:connector-curvature="0" /><path
         d="m 3473.82,2662.77 c 0,-10.75 0.02,-21.97 0.02,-31.2 0,-114.06 -92.46,-206.53 -206.54,-206.53 -0.3,0 -0.56,0.09 -0.87,0.09 l 0,-223.73 c 0.31,0 0.57,-0.08 0.87,-0.08 237.64,0 430.26,192.63 430.26,430.25 0,177.03 -0.3,326.86 -0.46,391.91 0.19,5.15 1.53,9.95 1.53,15.13 0,5.46 -1.4,10.52 -1.61,15.93 0,1.13 0,3.78 0,3.78 l -0.37,0 c -10.53,228.28 -197.41,410.56 -428.28,410.56 -237.64,0 -430.27,-192.64 -430.27,-430.27 0,-237.63 192.63,-430.28 430.27,-430.28 74.84,0 144.15,20.83 205.45,54.44 m -205.45,169.31 c -114.07,0 -206.53,92.46 -206.53,206.53 0,114.07 92.46,206.52 206.53,206.52 114.06,0 206.52,-92.45 206.52,-206.52 0,-114.07 -92.46,-206.53 -206.52,-206.53"
         style="fill:#294d23;fill-opacity:1;fill-rule:nonzero;stroke:none"
         id="path3413"
         inkscape:connector-curvature="0" /><path
         d="m 4298.09,3038.61 c 0,-237.63 192.63,-430.28 430.27,-430.28 74.79,0 144.09,20.82 205.37,54.4 0.05,-33.33 0.08,-55.86 0.08,-55.86 l 223.75,0 -0.51,416.14 c 0.2,5.29 1.56,10.26 1.56,15.6 0,5.47 -1.4,10.55 -1.6,15.99 l -0.01,3.72 -0.35,-0.17 c -10.43,228.36 -197.36,410.73 -428.29,410.73 -237.64,0 -430.27,-192.64 -430.27,-430.27 m 223.75,0 c 0,114.07 92.46,206.52 206.52,206.52 114.06,0 206.53,-92.45 206.53,-206.52 0,-114.06 -92.47,-206.53 -206.53,-206.53 -114.06,0 -206.52,92.47 -206.52,206.53"
         style="fill:#294d23;fill-opacity:1;fill-rule:nonzero;stroke:none"
         id="path3415"
         inkscape:connector-curvature="0" /><path
         d="m 5279.82,3038.61 c 0,-237.63 192.64,-430.28 430.28,-430.28 237.62,0 430.24,192.65 430.24,430.28 0,3.62 -0.96,6.98 -1.04,10.58 l -0.57,824.99 -223.63,0 c 0,-36 0.11,-254.97 0.24,-459.61 -61.26,33.53 -130.5,54.31 -205.24,54.31 -237.64,0 -430.28,-192.64 -430.28,-430.27 m 223.75,0 c 0,114.07 92.47,206.52 206.53,206.52 110.43,0 199.84,-86.91 205.45,-195.94 0,-5.95 0.02,-9.34 0.02,-9.34 l 0.92,0 c 0,-0.42 0.13,-0.83 0.13,-1.24 0,-114.06 -92.46,-206.53 -206.52,-206.53 -114.06,0 -206.53,92.47 -206.53,206.53"
         style="fill:#294d23;fill-opacity:1;fill-rule:nonzero;stroke:none"
         id="path3417"
         inkscape:connector-curvature="0" /><path
         d="m 7716.82,2967.75 2.43,57.87 c 0,285 -227,444.09 -425.4,444.09 -237.62,0 -435.82,-172.81 -435.82,-430.52 0,-257.68 203.92,-432.32 450.62,-432.32 113.15,0 219.35,51.53 299.55,130.42 -80.36,58.2 -113.75,81.56 -176.77,122.18 -35.79,-24.14 -85,-45.01 -135.15,-42.29 -33.33,1.8 -167.04,16.25 -201.25,150.34 l 621.79,0.23 z m -617.11,153.36 c 0,21.07 62.92,137.9 192.26,137.9 96.39,0 176.65,-81.36 200.28,-137.9 l -392.54,0"
         style="fill:#294d23;fill-opacity:1;fill-rule:nonzero;stroke:none"
         id="path3419"
         inkscape:connector-curvature="0" /><path
         d="m 2374.19,3174.13 c -73.74,462.79 -474.56,816.52 -958.12,816.52 -119.62,0 -234.13,-21.78 -339.93,-61.36 l 164.29,-284.58 540.46,0 271.7,-470.58 321.6,0"
         style="fill:#294d23;fill-opacity:1;fill-rule:nonzero;stroke:none"
         id="path3421"
         inkscape:connector-curvature="0" /></g></g></svg>